<?xml version="1.0" encoding="UTF-8" standalone="no"?>
<!-- Flowchart SVM Klasifikasi Email Spam -->
<svg
   xmlns="http://www.w3.org/2000/svg"
   width="600"
   height="700"
   viewBox="0 0 600 700"
   version="1.1">

  <!-- Styles -->
  <style>
    .box {
      fill: #dce6f7;
      stroke: #4a6fa5;
      stroke-width: 2;
      rx: 10;
      ry: 10;
    }
    .decision {
      fill: #f6f1d3;
      stroke: #a39128;
      stroke-width: 2;
    }
    text {
      font-family: Arial, Helvetica, sans-serif;
      font-size: 16px;
      fill: #0a0a0a;
    }
    .connector {
      fill: none;
      stroke: #333;
      stroke-width: 2;
      marker-end: url(#arrowhead);
    }
    .label {
      font-style: italic;
      fill: #555;
      font-size: 14px;
    }
  </style>

  <!-- Arrowhead marker definition -->
  <defs>
    <marker id="arrowhead" markerWidth="10" markerHeight="7"
      refX="10" refY="3.5" orient="auto" fill="#333">
      <polygon points="0 0, 10 3.5, 0 7" />
    </marker>
  </defs>

  <!-- Start box -->
  <rect x="200" y="20" width="200" height="50" class="box" />
  <text x="300" y="50" text-anchor="middle" dominant-baseline="middle"><tspan>Mulai</tspan></text>

  <!-- Input box -->
  <rect x="100" y="100" width="400" height="60" class="box" />
  <text x="300" y="130" text-anchor="middle" dominant-baseline="middle" >
    <tspan>Input Teks Email</tspan>
  </text>

  <!-- Preprocessing box -->
  <rect x="100" y="190" width="400" height="70" class="box" />
  <text x="300" y="215" text-anchor="middle" dominant-baseline="middle" >
    <tspan>Preprocessing</tspan>
  </text>
  <text x="300" y="235" text-anchor="middle" dominant-baseline="middle" font-size="14px" fill="#333" >
    <tspan> - Ubah ke huruf kecil</tspan>
  </text>
  <text x="300" y="255" text-anchor="middle" dominant-baseline="middle" font-size="14px" fill="#333" >
    <tspan> - Tokenisasi (pisah kata)</tspan>
  </text>

  <!-- Feature extraction box -->
  <rect x="100" y="280" width="400" height="60" class="box" />
  <text x="300" y="310" text-anchor="middle" dominant-baseline="middle">
    <tspan>Ekstraksi Fitur</tspan>
  </text>

  <!-- Hitung skor SVM -->
  <rect x="100" y="360" width="400" height="60" class="box" />
  <text x="300" y="390" text-anchor="middle" dominant-baseline="middle">
    <tspan>Hitung Skor SVM</tspan>
  </text>
  <text x="300" y="410" text-anchor="middle" dominant-baseline="middle" font-size="14px" fill="#333">
    <tspan>score = ∑ (wᵢ * xᵢ) + b</tspan>
  </text>

  <!-- Hitung probabilitas -->
  <rect x="100" y="440" width="400" height="60" class="box" />
  <text x="300" y="470" text-anchor="middle" dominant-baseline="middle">
    <tspan>Hitung Probabilitas Spam</tspan>
  </text>
  <text x="300" y="490" text-anchor="middle" dominant-baseline="middle" font-size="14px" fill="#333">
    <tspan>P(spam) = 1 / (1 + e^(-score))</tspan>
  </text>

  <!-- Decision Diamond -->
  <polygon points="300,540 360,580 300,620 240,580" class="decision" stroke="#a39128" stroke-width="2"/>
  <text x="300" y="580" text-anchor="middle" dominant-baseline="middle" font-weight="bold">
    Probabilitas ≥ 0.5?
  </text>

  <!-- Arrow connecting boxes -->
  <line class="connector" x1="300" y1="70" x2="300" y2="100" />
  <line class="connector" x1="300" y1="160" x2="300" y2="190" />
  <line class="connector" x1="300" y1="260" x2="300" y2="280" />
  <line class="connector" x1="300" y1="340" x2="300" y2="360" />
  <line class="connector" x1="300" y1="420" x2="300" y2="440" />
  <line class="connector" x1="300" y1="500" x2="300" y2="540" />

  <!-- Arrow for Yes branch -->
  <line class="connector" x1="360" y1="580" x2="420" y2="580" />
  <rect x="420" y="550" width="140" height="60" class="box" />
  <text x="490" y="580" text-anchor="middle" dominant-baseline="middle" fill="#d94c4c" font-weight="bold">
    Spam
  </text>
  <line class="connector" x1="490" y1="610" x2="300" y2="650" marker-end="url(#arrowhead)" />

  <!-- Arrow for No branch -->
  <line class="connector" x1="240" y1="580" x2="180" y2="580" />
  <rect x="40" y="550" width="140" height="60" class="box" />
  <text x="110" y="580" text-anchor="middle" dominant-baseline="middle" fill="#3fbf6f" font-weight="bold">
    Bukan Spam
  </text>
  <line class="connector" x1="110" y1="610" x2="300" y2="650" marker-end="url(#arrowhead)" />

  <!-- Output box -->
  <rect x="200" y="650" width="200" height="60" class="box" />
  <text x="300" y="680" text-anchor="middle" dominant-baseline="middle">
    Tampilkan hasil klasifikasi &amp; probabilitas
  </text>

</svg>
